# xmcd
#
# Track frame offsets:
#	150
#	14480
#	33737
#	48223
#	64717
#	84433
#	102731
#	116540
#	130876
#	147894
#
# Disc length: 2179 seconds
#
# Revision: 1
# Processed by: cddbd v1.5.2PL0 Copyright (c) Steve Scherf et al.
# Submitted via: audiograbber 1.83.01
#
DISCID=8908810a
DTITLE=Lars And The Hands Of Light - The Looking Glass 
DYEAR=2010
DGENRE=Indie
TTITLE0=Me Me Me
TTITLE1=Stranger To the Sea
TTITLE2=Three To the Floor
TTITLE3=Multicolored
TTITLE4=Hey My Love, Hey Love!
TTITLE5=The Looking Glass
TTITLE6=Keep My Feet Tagging Along
TTITLE7=The Girl Flu
TTITLE8=Face Your Lover
TTITLE9=Christmas Comatose
EXTD=
EXTT0=
EXTT1=
EXTT2=
EXTT3=
EXTT4=
EXTT5=
EXTT6=
EXTT7=
EXTT8=
EXTT9=
PLAYORDER=
